<?xml version="1.0" encoding="utf-8"?>
<!-- Generator: Adobe Illustrator 28.3.0, SVG Export Plug-In . SVG Version: 6.00 Build 0)  -->
<svg version="1.1" id="Livello_1" xmlns="http://www.w3.org/2000/svg" xmlns:xlink="http://www.w3.org/1999/xlink" x="0px" y="0px"
	 viewBox="0 0 44 38" style="enable-background:new 0 0 44 38;" xml:space="preserve">
<style type="text/css">
	.st0{fill:#00D9A6;}
</style>
<path class="st0" d="M19.5,28.4c0,5.2-4.2,9.4-9.4,9.4c-0.1,0-0.1,0-0.2,0h0c-1.6,0.1-11-0.2-9.8-13.6C1.4,9.5,17.5,0.3,17.5,0.3
	l2.7,3.4C11.4,9,9.3,16.5,8.9,19.1C9.3,19,9.7,19,10.1,19C15.3,19,19.5,23.2,19.5,28.4z"/>
<path class="st0" d="M43.3,28.4c0,5.2-4.2,9.4-9.4,9.4c-0.1,0-0.1,0-0.2,0h0c-1.6,0.1-11-0.2-9.8-13.6C25.2,9.5,41.3,0.3,41.3,0.3
	L44,3.7C35.2,9,33.1,16.5,32.7,19.1c0.4-0.1,0.8-0.1,1.2-0.1C39.1,19,43.3,23.2,43.3,28.4z"/>
</svg>
